PathFileType  4	(X/Y/Z) C:\Users\wagnerel85475\Documents\Thesis\opencap-core\Data\3375ffbc-daeb-4a43-b4f7-ac9899cd4c71\MarkerData\PreAugmentation
DataRate	CameraRate	NumFrames	NumMarkers	Units	OrigDataRate	OrigDataStartFrame	OrigNumFrames
60.0	60.0	15	20	m	60.0	103	823
Frame#	Time	Neck			RShoulder			RElbow			RWrist			LShoulder			LElbow			LWrist			midHip			RHip			RKnee			RAnkle			LHip			LKnee			LAnkle			LBigToe			LSmallToe			LHeel			RBigToe			RSmallToe			RHeel			
		X1	Y1	Z1	X2	Y2	Z2	X3	Y3	Z3	X4	Y4	Z4	X5	Y5	Z5	X6	Y6	Z6	X7	Y7	Z7	X8	Y8	Z8	X9	Y9	Z9	X10	Y10	Z10	X11	Y11	Z11	X12	Y12	Z12	X13	Y13	Z13	X14	Y14	Z14	X15	Y15	Z15	X16	Y16	Z16	X17	Y17	Z17	X18	Y18	Z18	X19	Y19	Z19	X20	Y20	Z20	

103	1.7000000	-1.0122600	1.3644600	-0.0454000	-1.0420200	1.3555400	0.1231200	-1.0393500	1.0366700	0.1975700	-0.9810900	0.7580500	0.2718700	-1.0032200	1.3750500	-0.2124600	-0.7340200	1.1762200	-0.2504400	-0.4536100	1.3500800	-0.1155200	-0.9266000	0.7925500	-0.0312300	-0.9295100	0.7923300	0.0807100	-1.0048200	0.3053500	0.1061100	-1.0930600	-0.1945700	0.1596900	-0.9701700	0.7881300	-0.1470800	-1.0277100	0.2831300	-0.1499500	-1.0216100	-0.1887400	-0.2154200	-0.8236900	-0.2532600	-0.2421800	-0.8688100	-0.2370100	-0.2809700	-1.1180700	-0.2506800	-0.1846500	-0.8602300	-0.2628900	0.1957700	-0.8887500	-0.2392800	0.2418400	-1.1119300	-0.2516500	0.1443300
104	1.7166667	-1.0122400	1.3644700	-0.0454200	-1.0411900	1.3579300	0.1233700	-1.0393400	1.0366700	0.1975800	-0.9810900	0.7580000	0.2718500	-1.0032300	1.3750700	-0.2124600	-0.7339200	1.1773300	-0.2503800	-0.4518300	1.3502900	-0.1150500	-0.9249100	0.7928100	-0.0308100	-0.9295200	0.7923300	0.0807400	-1.0046300	0.3062400	0.1059400	-1.0928000	-0.1964300	0.1595100	-0.9705400	0.7861100	-0.1469900	-1.0280900	0.2841300	-0.1498700	-1.0215800	-0.1882500	-0.2154500	-0.8241600	-0.2534900	-0.2423200	-0.8688200	-0.2370200	-0.2809600	-1.1181200	-0.2506600	-0.1846600	-0.8602700	-0.2629100	0.1957600	-0.8887600	-0.2392900	0.2418400	-1.1119300	-0.2516400	0.1443300
105	1.7333333	-1.0122000	1.3645000	-0.0454200	-1.0357900	1.3595200	0.1245500	-1.0392800	1.0366500	0.1975700	-0.9810700	0.7579200	0.2718300	-1.0032400	1.3751000	-0.2124600	-0.7339300	1.1789800	-0.2503500	-0.4476000	1.3502900	-0.1138200	-0.9212500	0.7932400	-0.0298800	-0.9299000	0.7922800	0.0809000	-1.0046200	0.3069300	0.1060000	-1.0927800	-0.1963400	0.1594900	-0.9708800	0.7846600	-0.1469000	-1.0285300	0.2852600	-0.1497900	-1.0213000	-0.1867100	-0.2156200	-0.8246000	-0.2535900	-0.2424200	-0.8688500	-0.2370300	-0.2809600	-1.1180900	-0.2507400	-0.1846700	-0.8603300	-0.2629200	0.1957500	-0.8887600	-0.2393300	0.2418400	-1.1119100	-0.2516200	0.1443200
106	1.7500000	-1.0121300	1.3644900	-0.0454200	-1.0276500	1.3598000	0.1262700	-1.0392200	1.0366500	0.1975500	-0.9810800	0.7579500	0.2718100	-1.0032000	1.3750700	-0.2124600	-0.7341200	1.1791500	-0.2503900	-0.4432300	1.3502200	-0.1125400	-0.9191900	0.7934300	-0.0293600	-0.9304600	0.7927600	0.0811100	-1.0047800	0.3066500	0.1062300	-1.0930000	-0.1944200	0.1596700	-0.9709700	0.7841400	-0.1468700	-1.0287500	0.2857400	-0.1497500	-1.0209300	-0.1848000	-0.2158700	-0.8247700	-0.2534900	-0.2424200	-0.8689200	-0.2370400	-0.2809700	-1.1180500	-0.2507900	-0.1846800	-0.8603400	-0.2629400	0.1957500	-0.8887800	-0.2393300	0.2418500	-1.1118900	-0.2515900	0.1443100
107	1.7666667	-1.0120700	1.3644900	-0.0454200	-1.0235400	1.3595500	0.1271000	-1.0391800	1.0366300	0.1975300	-0.9810600	0.7579500	0.2717900	-1.0030900	1.3750600	-0.2124500	-0.7341700	1.1771600	-0.2504200	-0.4423600	1.3501100	-0.1122700	-0.9215800	0.7932100	-0.0299600	-0.9295900	0.7945100	0.0807400	-1.0050500	0.3056800	0.1064100	-1.0933400	-0.1930300	0.1599100	-0.9708000	0.7846400	-0.1469100	-1.0288000	0.2858800	-0.1497400	-1.0207900	-0.1839800	-0.2159800	-0.8247900	-0.2535100	-0.2424200	-0.8690000	-0.2370600	-0.2809900	-1.1180200	-0.2507900	-0.1846800	-0.8603000	-0.2629200	0.1957600	-0.8887600	-0.2393500	0.2418700	-1.1119000	-0.2515700	0.1443200
108	1.7833333	-1.0120600	1.3645000	-0.0454400	-1.0274600	1.3595600	0.1262300	-1.0391700	1.0366300	0.1975000	-0.9810200	0.7580300	0.2717800	-1.0029900	1.3750600	-0.2124300	-0.7329200	1.1754500	-0.2500800	-0.4432100	1.3500500	-0.1124900	-0.9253500	0.7929300	-0.0309200	-0.9252400	0.7966400	0.0790700	-1.0052000	0.3053400	0.1064300	-1.0936300	-0.1933200	0.1601300	-0.9704800	0.7861400	-0.1469800	-1.0285800	0.2854100	-0.1497800	-1.0208800	-0.1846800	-0.2158900	-0.8247400	-0.2535000	-0.2423900	-0.8689700	-0.2370500	-0.2809800	-1.1179300	-0.2508700	-0.1846900	-0.8602300	-0.2629200	0.1957700	-0.8886200	-0.2392800	0.2418300	-1.1118900	-0.2515700	0.1443300
109	1.8000000	-1.0120900	1.3644900	-0.0454600	-1.0357800	1.3596900	0.1245000	-1.0391600	1.0366000	0.1974800	-0.9809600	0.7581200	0.2717600	-1.0030400	1.3751200	-0.2124500	-0.7299800	1.1784500	-0.2491600	-0.4417500	1.3500300	-0.1120400	-0.9257700	0.7929100	-0.0310600	-0.9186000	0.7972300	0.0766200	-1.0052500	0.3051400	0.1063500	-1.0935900	-0.1942800	0.1601600	-0.9704200	0.7881400	-0.1469600	-1.0279100	0.2839400	-0.1499000	-1.0210100	-0.1853400	-0.2158000	-0.8244200	-0.2533300	-0.2422600	-0.8685900	-0.2369700	-0.2808800	-1.1177700	-0.2509700	-0.1847000	-0.8602200	-0.2628500	0.1957800	-0.8882700	-0.2391500	0.2417000	-1.1118600	-0.2515600	0.1443600
110	1.8166667	-1.0121100	1.3644900	-0.0454700	-1.0419100	1.3600600	0.1234000	-1.0391700	1.0366200	0.1974800	-0.9809400	0.7582100	0.2717700	-1.0034700	1.3751100	-0.2125700	-0.7269800	1.1829100	-0.2481800	-0.4388700	1.3505800	-0.1111800	-0.9224500	0.7931100	-0.0302600	-0.9137900	0.7963200	0.0748900	-1.0052300	0.3035400	0.1063300	-1.0931600	-0.1952700	0.1599000	-0.9706200	0.7894100	-0.1468700	-1.0271600	0.2821600	-0.1500300	-1.0208900	-0.1848700	-0.2158600	-0.8240900	-0.2529900	-0.2420800	-0.8681300	-0.2367900	-0.2807300	-1.1178200	-0.2505200	-0.1846800	-0.8602100	-0.2628100	0.1957800	-0.8881900	-0.2390400	0.2416600	-1.1118000	-0.2515700	0.1443800
111	1.8333333	-1.0121000	1.3644900	-0.0454700	-1.0432500	1.3597300	0.1231400	-1.0391900	1.0366400	0.1974900	-0.9809800	0.7581100	0.2717900	-1.0038800	1.3751300	-0.2127000	-0.7246400	1.1858000	-0.2474300	-0.4374800	1.3506000	-0.1107700	-0.9183900	0.7933900	-0.0292700	-0.9124900	0.7959000	0.0744400	-1.0052300	0.3015400	0.1063500	-1.0927800	-0.1970000	0.1596100	-0.9693600	0.7898200	-0.1472700	-1.0267000	0.2807400	-0.1501400	-1.0207500	-0.1838700	-0.2159800	-0.8252800	-0.2532100	-0.2423800	-0.8692700	-0.2370600	-0.2810400	-1.1178100	-0.2503800	-0.1846700	-0.8602000	-0.2628200	0.1958000	-0.8897800	-0.2394100	0.2422900	-1.1117600	-0.2516100	0.1443700
112	1.8500000	-1.0120700	1.3644900	-0.0454700	-1.0408000	1.3581300	0.1227100	-1.0391800	1.0366100	0.1974900	-0.9810500	0.7579600	0.2718000	-1.0023800	1.3751100	-0.2122800	-0.7219800	1.1894600	-0.2465400	-0.4375900	1.3502600	-0.1107900	-0.9151400	0.7940200	-0.0284600	-0.9126100	0.7960400	0.0744800	-1.0051900	0.3001900	0.1063300	-1.0927100	-0.1994900	0.1595700	-0.9645400	0.7901400	-0.1488100	-1.0267000	0.2803100	-0.1502100	-1.0207500	-0.1834600	-0.2160300	-0.8299800	-0.2544300	-0.2437300	-0.8739400	-0.2382700	-0.2824100	-1.1178500	-0.2504600	-0.1846600	-0.8602400	-0.2628300	0.1958300	-0.8932500	-0.2403300	0.2436700	-1.1118200	-0.2516500	0.1443400
113	1.8666667	-1.0120500	1.3643900	-0.0454800	-1.0366600	1.3558100	0.1216200	-1.0391400	1.0366000	0.1974800	-0.9810100	0.7583300	0.2717700	-0.9972900	1.3750200	-0.2108500	-0.7196600	1.1937100	-0.2457200	-0.4379500	1.3505900	-0.1108600	-0.9131800	0.7952200	-0.0279300	-0.9127800	0.7954600	0.0745700	-1.0050700	0.2991400	0.1062500	-1.0928600	-0.2013300	0.1597000	-0.9576000	0.7905900	-0.1510300	-1.0269300	0.2804700	-0.1502600	-1.0208700	-0.1835400	-0.2160200	-0.8366500	-0.2563700	-0.2457200	-0.8806400	-0.2401500	-0.2844100	-1.1176200	-0.2513100	-0.1846900	-0.8602700	-0.2629100	0.1958500	-0.8953500	-0.2409200	0.2445000	-1.1119300	-0.2516600	0.1443100
114	1.8833333	-1.0120500	1.3643700	-0.0454900	-1.0343300	1.3541900	0.1208800	-1.0391000	1.0365700	0.1974700	-0.9807100	0.7595400	0.2716700	-0.9914500	1.3749000	-0.2092100	-0.7189500	1.1962800	-0.2454100	-0.4381100	1.3505400	-0.1108900	-0.9150300	0.7962100	-0.0283100	-0.9142700	0.7943200	0.0751500	-1.0049400	0.2982300	0.1061700	-1.0929600	-0.2012700	0.1597100	-0.9528900	0.7910400	-0.1525600	-1.0270500	0.2805700	-0.1502800	-1.0209600	-0.1837100	-0.2159900	-0.8411900	-0.2577900	-0.2471100	-0.8852900	-0.2413700	-0.2857900	-1.1176200	-0.2515600	-0.1846800	-0.8602700	-0.2629300	0.1958700	-0.8934700	-0.2404400	0.2437400	-1.1119800	-0.2516900	0.1442900
115	1.9000000	-1.0120800	1.3643800	-0.0455000	-1.0348400	1.3538400	0.1210100	-1.0391000	1.0365700	0.1974600	-0.9802800	0.7613600	0.2715200	-0.9897600	1.3749100	-0.2087300	-0.7192100	1.1967000	-0.2454600	-0.4380400	1.3505600	-0.1109300	-0.9207300	0.7961700	-0.0296800	-0.9177300	0.7935200	0.0764300	-1.0048700	0.2978800	0.1061300	-1.0929300	-0.2000900	0.1595800	-0.9518800	0.7911800	-0.1529100	-1.0270400	0.2805700	-0.1502700	-1.0210000	-0.1837800	-0.2159700	-0.8422500	-0.2580800	-0.2474500	-0.8863800	-0.2416400	-0.2861200	-1.1176700	-0.2515400	-0.1846700	-0.8602100	-0.2629500	0.1958700	-0.8901600	-0.2395500	0.2424100	-1.1119600	-0.2516800	0.1442700
116	1.9166667	-1.0121300	1.3643900	-0.0455100	-1.0351000	1.3540300	0.1210300	-1.0391300	1.0365800	0.1974600	-0.9799800	0.7626100	0.2714300	-0.9919500	1.3749300	-0.2093500	-0.7194800	1.1967100	-0.2455400	-0.4377400	1.3505000	-0.1110400	-0.9256400	0.7953100	-0.0309200	-0.9197400	0.7933600	0.0771600	-1.0048600	0.2979300	0.1061400	-1.0929100	-0.1996300	0.1595200	-0.9524000	0.7910800	-0.1527700	-1.0270000	0.2805600	-0.1502500	-1.0209900	-0.1837400	-0.2159700	-0.8416900	-0.2579600	-0.2473000	-0.8858300	-0.2415000	-0.2859600	-1.1176700	-0.2515300	-0.1846600	-0.8601800	-0.2629400	0.1958600	-0.8885700	-0.2391300	0.2417700	-1.1120100	-0.2516900	0.1442800
117	1.9333333	-1.0121800	1.3643800	-0.0455200	-1.0350900	1.3541800	0.1209700	-1.0391700	1.0365800	0.1974600	-0.9799000	0.7629600	0.2714100	-0.9952000	1.3749800	-0.2102700	-0.7196400	1.1976900	-0.2455500	-0.4376600	1.3506400	-0.1110500	-0.9272700	0.7940400	-0.0314100	-0.9173300	0.7936500	0.0762700	-1.0048700	0.2980100	0.1061500	-1.0929200	-0.1997900	0.1595400	-0.9524500	0.7910800	-0.1527800	-1.0269700	0.2805200	-0.1502400	-1.0209600	-0.1836100	-0.2159900	-0.8412800	-0.2577400	-0.2471700	-0.8854000	-0.2413500	-0.2858400	-1.1177600	-0.2513300	-0.1846500	-0.8601600	-0.2629500	0.1958600	-0.8882700	-0.2390600	0.2416500	-1.1124300	-0.2517900	0.1444400
